<?xml version="1.0" encoding="utf-8"?>
<!-- Generated by IcoMoon.io -->
<svg version="1.1" xmlns="http://www.w3.org/2000/svg" xmlns:xlink="http://www.w3.org/1999/xlink" width="688" height="72" viewBox="0 0 688 72">
<svg id="raven-element-icon-alert" width="28" height="28" viewBox="0 0 28 28" x="0" y="0">
<path fill="#d0eff7" d="M27.462 14c0 7.435-6.027 13.462-13.462 13.462s-13.462-6.027-13.462-13.462c0-7.435 6.027-13.462 13.462-13.462s13.462 6.027 13.462 13.462z"></path>
<path fill="#535d6b" d="M14 28c-7.754 0-14-6.246-14-14s6.246-14 14-14c7.754 0 14 6.246 14 14s-6.246 14-14 14zM14 1.077c-7.108 0-12.923 5.815-12.923 12.923s5.815 12.923 12.923 12.923c7.108 0 12.923-5.815 12.923-12.923s-5.815-12.923-12.923-12.923z"></path>
<path fill="#535d6b" d="M14 16.692c-0.323 0-0.538-0.215-0.538-0.538v-9.692c0-0.323 0.215-0.538 0.538-0.538s0.538 0.215 0.538 0.538v9.692c0 0.323-0.215 0.538-0.538 0.538z"></path>
<path fill="#535d6b" d="M15.077 20.462c0 0.595-0.482 1.077-1.077 1.077s-1.077-0.482-1.077-1.077c0-0.595 0.482-1.077 1.077-1.077s1.077 0.482 1.077 1.077z"></path>
</svg>
<svg id="raven-element-icon-button" width="44" height="28" viewBox="0 0 44 28" x="44" y="0">
<path fill="#d0eff7" d="M0.741 0.741h42.963v19.259h-42.963v-19.259z"></path>
<path fill="#535d6b" d="M43.704 20.741h-42.963c-0.444 0-0.741-0.296-0.741-0.741v-19.259c0-0.444 0.296-0.741 0.741-0.741h42.963c0.444 0 0.741 0.296 0.741 0.741v19.259c0 0.444-0.296 0.741-0.741 0.741zM1.481 19.259h41.481v-17.778h-41.481v17.778z"></path>
<path fill="#fff" d="M32.148 18.963l-13.185-4.889 4.889 13.185 2.074-4.148 3.704 3.704 2.222-2.074-3.852-3.704z"></path>
<path fill="#535d6b" d="M23.852 28c0 0 0 0 0 0-0.296 0-0.593-0.148-0.741-0.444l-4.889-13.185c-0.148-0.296 0-0.593 0.148-0.741 0.296-0.296 0.593-0.296 0.889-0.296l13.185 4.889c0.296 0.148 0.444 0.296 0.444 0.593s-0.148 0.593-0.444 0.741l-3.259 1.63 2.963 2.963c0.296 0.296 0.296 0.741 0 1.037l-2.074 2.074c-0.296 0.296-0.741 0.296-1.037 0l-2.963-2.963-1.63 3.259c0 0.296-0.296 0.444-0.593 0.444zM25.926 22.37c0.148 0 0.444 0.148 0.593 0.148l3.259 3.259 1.037-1.037-3.259-3.259c-0.148-0.148-0.296-0.444-0.148-0.593 0-0.296 0.148-0.444 0.444-0.593l2.667-1.333-10.074-3.704 3.704 10.074 1.333-2.667c-0.148-0.148 0.148-0.296 0.444-0.296 0 0 0 0 0 0z"></path>
</svg>
<svg id="raven-element-icon-categories" width="28" height="28" viewBox="0 0 28 28" x="132" y="0">
<path fill="#d0eff7" d="M0.5 0.5h7v7h-7v-7z"></path>
<path fill="#535d6b" d="M7.5 8h-7c-0.3 0-0.5-0.2-0.5-0.5v-7c0-0.3 0.2-0.5 0.5-0.5h7c0.3 0 0.5 0.2 0.5 0.5v7c0 0.3-0.2 0.5-0.5 0.5zM1 7h6v-6h-6v6z"></path>
<path fill="#d0eff7" d="M10.5 0.5h7v7h-7v-7z"></path>
<path fill="#535d6b" d="M17.5 8h-7c-0.3 0-0.5-0.2-0.5-0.5v-7c0-0.3 0.2-0.5 0.5-0.5h7c0.3 0 0.5 0.2 0.5 0.5v7c0 0.3-0.2 0.5-0.5 0.5zM11 7h6v-6h-6v6z"></path>
<path fill="#d0eff7" d="M20.5 0.5h7v7h-7v-7z"></path>
<path fill="#535d6b" d="M27.5 8h-7c-0.3 0-0.5-0.2-0.5-0.5v-7c0-0.3 0.2-0.5 0.5-0.5h7c0.3 0 0.5 0.2 0.5 0.5v7c0 0.3-0.2 0.5-0.5 0.5zM21 7h6v-6h-6v6z"></path>
<path fill="#d0eff7" d="M0.5 10.5h7v7h-7v-7z"></path>
<path fill="#535d6b" d="M7.5 18h-7c-0.3 0-0.5-0.2-0.5-0.5v-7c0-0.3 0.2-0.5 0.5-0.5h7c0.3 0 0.5 0.2 0.5 0.5v7c0 0.3-0.2 0.5-0.5 0.5zM1 17h6v-6h-6v6z"></path>
<path fill="#d0eff7" d="M10.5 10.5h7v7h-7v-7z"></path>
<path fill="#535d6b" d="M17.5 18h-7c-0.3 0-0.5-0.2-0.5-0.5v-7c0-0.3 0.2-0.5 0.5-0.5h7c0.3 0 0.5 0.2 0.5 0.5v7c0 0.3-0.2 0.5-0.5 0.5zM11 17h6v-6h-6v6z"></path>
<path fill="#d0eff7" d="M20.5 10.5h7v7h-7v-7z"></path>
<path fill="#535d6b" d="M27.5 18h-7c-0.3 0-0.5-0.2-0.5-0.5v-7c0-0.3 0.2-0.5 0.5-0.5h7c0.3 0 0.5 0.2 0.5 0.5v7c0 0.3-0.2 0.5-0.5 0.5zM21 17h6v-6h-6v6z"></path>
<path fill="#d0eff7" d="M0.5 20.5h7v7h-7v-7z"></path>
<path fill="#535d6b" d="M7.5 28h-7c-0.3 0-0.5-0.2-0.5-0.5v-7c0-0.3 0.2-0.5 0.5-0.5h7c0.3 0 0.5 0.2 0.5 0.5v7c0 0.3-0.2 0.5-0.5 0.5zM1 27h6v-6h-6v6z"></path>
<path fill="#d0eff7" d="M10.5 20.5h7v7h-7v-7z"></path>
<path fill="#535d6b" d="M17.5 28h-7c-0.3 0-0.5-0.2-0.5-0.5v-7c0-0.3 0.2-0.5 0.5-0.5h7c0.3 0 0.5 0.2 0.5 0.5v7c0 0.3-0.2 0.5-0.5 0.5zM11 27h6v-6h-6v6z"></path>
<path fill="#d0eff7" d="M20.5 20.5h7v7h-7v-7z"></path>
<path fill="#535d6b" d="M27.5 28h-7c-0.3 0-0.5-0.2-0.5-0.5v-7c0-0.3 0.2-0.5 0.5-0.5h7c0.3 0 0.5 0.2 0.5 0.5v7c0 0.3-0.2 0.5-0.5 0.5zM21 27h6v-6h-6v6z"></path>
</svg>
<svg id="raven-element-icon-countdown" width="24" height="28" viewBox="0 0 24 28" x="176" y="0">
<path fill="#d0eff7" d="M23.774 15.849c0 6.419-5.204 11.623-11.623 11.623s-11.623-5.204-11.623-11.623c0-6.419 5.204-11.623 11.623-11.623s11.623 5.204 11.623 11.623z"></path>
<path fill="#535d6b" d="M12.151 28c-6.657 0-12.151-5.494-12.151-12.151s5.494-12.151 12.151-12.151c6.657 0 12.151 5.494 12.151 12.151s-5.494 12.151-12.151 12.151zM12.151 4.755c-6.128 0-11.094 4.966-11.094 11.094s4.966 11.094 11.094 11.094c6.128 0 11.094-4.966 11.094-11.094s-4.966-11.094-11.094-11.094z"></path>
<path fill="#535d6b" d="M12.151 4.755c-0.317 0-0.528-0.211-0.528-0.528v-3.592c0-0.317 0.211-0.528 0.528-0.528s0.528 0.211 0.528 0.528v3.592c0 0.317-0.211 0.528-0.528 0.528z"></path>
<path fill="#535d6b" d="M16.377 1.057h-8.453c-0.317 0-0.528-0.211-0.528-0.528s0.211-0.528 0.528-0.528h8.453c0.317 0 0.528 0.211 0.528 0.528s-0.211 0.528-0.528 0.528z"></path>
<path fill="#535d6b" d="M18.491 16.906h-6.34c-0.317 0-0.528-0.211-0.528-0.528v-6.34c0-0.317 0.211-0.528 0.528-0.528s0.528 0.211 0.528 0.528v5.811h5.811c0.317 0 0.528 0.211 0.528 0.528s-0.211 0.528-0.528 0.528z"></path>
</svg>
<svg id="raven-element-icon-counter" width="33" height="28" viewBox="0 0 33 28" x="220" y="0">
<path fill="#d0eff7" d="M0.636 0.636h31.818v26.727h-31.818v-26.727z"></path>
<path fill="#535d6b" d="M32.455 28h-31.818c-0.382 0-0.636-0.255-0.636-0.636v-26.727c0-0.382 0.255-0.636 0.636-0.636h31.818c0.382 0 0.636 0.255 0.636 0.636v26.727c0 0.382-0.255 0.636-0.636 0.636zM1.273 26.727h30.545v-25.455h-30.545v25.455z"></path>
<path fill="#535d6b" d="M21 7.636h-10.182c-0.255 0-0.509-0.127-0.636-0.382 0-0.255 0-0.509 0.127-0.636l4.964-6.109c0.255-0.255 0.636-0.255 0.891-0.127 0.255 0.255 0.255 0.636 0.127 0.891l-4.073 5.091h8.782c0.382 0 0.636 0.255 0.636 0.636s-0.255 0.636-0.636 0.636z"></path>
<path fill="#535d6b" d="M18.455 10.182c-0.382 0-0.636-0.255-0.636-0.636v-8.655c0-0.382 0.255-0.636 0.636-0.636s0.636 0.255 0.636 0.636v8.655c0 0.382-0.255 0.636-0.636 0.636z"></path>
<path fill="#535d6b" d="M19.727 27.873c-0.382 0-0.636-0.255-0.636-0.636 0-2.545-1.909-4.327-4.455-4.327-0.764 0-1.527 0.127-2.164 0.509-0.255 0.127-0.509 0.127-0.764-0.127-0.255-0.127-0.255-0.382-0.255-0.636l1.909-5.6c0.127-0.255 0.382-0.382 0.636-0.382h6.873c0.382 0 0.636 0.255 0.636 0.636s-0.127 0.509-0.509 0.509h-6.491l-1.273 3.945c0.509-0.127 1.018-0.127 1.4-0.127 3.309 0 5.727 2.418 5.727 5.6 0 0.382-0.255 0.636-0.636 0.636z"></path>
</svg>
<svg id="raven-element-icon-divider" width="30" height="28" viewBox="0 0 30 28" x="264" y="0">
<path fill="#535d6b" d="M29.615 14.538h-29.077c-0.323 0-0.538-0.215-0.538-0.538s0.215-0.538 0.538-0.538h29.077c0.323 0 0.538 0.215 0.538 0.538s-0.215 0.538-0.538 0.538z"></path>
<path fill="#d0eff7" d="M24.231 0.538v9.154h-18.308v-9.154z"></path>
<path fill="#535d6b" d="M24.231 10.231h-18.308c-0.323 0-0.538-0.215-0.538-0.538v-9.154c0-0.323 0.215-0.538 0.538-0.538s0.538 0.215 0.538 0.538v8.615h17.231v-8.615c0-0.323 0.215-0.538 0.538-0.538s0.538 0.215 0.538 0.538v9.154c0 0.323-0.215 0.538-0.538 0.538z"></path>
<path fill="#d0eff7" d="M24.231 27.462v-9.154h-18.308v9.154z"></path>
<path fill="#535d6b" d="M24.231 28c-0.323 0-0.538-0.215-0.538-0.538v-8.615h-17.231v8.615c0 0.323-0.215 0.538-0.538 0.538s-0.538-0.215-0.538-0.538v-9.154c0-0.323 0.215-0.538 0.538-0.538h18.308c0.323 0 0.538 0.215 0.538 0.538v9.154c0 0.323-0.215 0.538-0.538 0.538z"></path>
</svg>
<svg id="raven-element-icon-flex-spacer" width="29" height="28" viewBox="0 0 29 28" x="308" y="0">
<path fill="#535d6b" d="M28.448 4.032c-0.224 0-0.448 0.224-0.448 0.448v8.064l-5.264-3.472c-0.112-0.112-0.336-0.112-0.448 0s-0.224 0.224-0.224 0.448v3.472h-6.944v-6.048h3.472c0.224 0 0.336-0.112 0.448-0.224s0.112-0.336 0-0.56l-3.472-5.264h9.072c0.224 0 0.448-0.224 0.448-0.448s-0.336-0.448-0.56-0.448h-19.040c-0.224 0-0.448 0.224-0.448 0.448s0.224 0.448 0.448 0.448h8.064l-3.472 5.376c-0.112 0.112-0.112 0.336 0 0.448s0.224 0.224 0.448 0.224h3.472v6.048h-7.056v-3.472c0-0.224-0.112-0.336-0.224-0.448s-0.336-0.112-0.448 0l-5.264 3.472v-8.064c0-0.224-0.224-0.448-0.448-0.448s-0.56 0.224-0.56 0.448v19.040c0 0.224 0.224 0.448 0.448 0.448s0.448-0.224 0.448-0.448v-9.072l5.376 3.472c0.112 0 0.224 0.112 0.224 0.112 0.112 0 0.112 0 0.224-0.112s0.224-0.224 0.224-0.448v-3.472h6.944v7.056h-3.36c-0.224 0-0.336 0.112-0.448 0.224s-0.112 0.336 0 0.56l3.472 5.264h-8.064c-0.224 0-0.448 0.224-0.448 0.448s0.224 0.448 0.448 0.448h19.040c0.224 0 0.448-0.224 0.448-0.448s-0.224-0.448-0.448-0.448h-9.072l3.472-5.264c0.112-0.112 0.112-0.336 0-0.56-0.112-0.112-0.224-0.224-0.448-0.224h-3.472v-7.056h6.944v3.472c0 0.224 0.112 0.336 0.224 0.448 0.112 0 0.112 0.112 0.224 0.112s0.224 0 0.224-0.112l5.264-3.472v9.072c0 0.224 0.224 0.448 0.448 0.448s0.448-0.224 0.448-0.448v-19.040c0.224-0.224 0-0.448-0.336-0.448zM11.424 6.048l3.136-4.592 3.024 4.592h-6.16zM6.048 16.576l-4.592-3.024 4.592-3.024v6.048zM17.584 21.952l-3.024 4.592-3.024-4.592h6.048zM22.96 16.576v-6.16l4.592 3.024-4.592 3.136z"></path>
</svg>
<svg id="raven-element-icon-form" width="28" height="28" viewBox="0 0 28 28" x="352" y="0">
<path fill="#535d6b" d="M27.5 8h-27c-0.3 0-0.5-0.2-0.5-0.5v-7c0-0.3 0.2-0.5 0.5-0.5h27c0.3 0 0.5 0.2 0.5 0.5v7c0 0.3-0.2 0.5-0.5 0.5zM1 7h26v-6h-26v6z"></path>
<path fill="#535d6b" d="M7.5 18h-7c-0.3 0-0.5-0.2-0.5-0.5v-7c0-0.3 0.2-0.5 0.5-0.5h7c0.3 0 0.5 0.2 0.5 0.5v7c0 0.3-0.2 0.5-0.5 0.5zM1 17h6v-6h-6v6z"></path>
<path fill="#535d6b" d="M24 18h-10c-2.2 0-4-1.8-4-4s1.8-4 4-4h10c2.2 0 4 1.8 4 4s-1.8 4-4 4zM14 11c-1.7 0-3 1.3-3 3s1.3 3 3 3h10c1.7 0 3-1.3 3-3s-1.3-3-3-3h-10z"></path>
<path fill="#d0eff7" d="M0.5 20.5h17v7h-17v-7z"></path>
<path fill="#535d6b" d="M17.5 28h-17c-0.3 0-0.5-0.2-0.5-0.5v-7c0-0.3 0.2-0.5 0.5-0.5h17c0.3 0 0.5 0.2 0.5 0.5v7c0 0.3-0.2 0.5-0.5 0.5zM1 27h16v-6h-16v6z"></path>
<path fill="#535d6b" d="M25 24c0 0.552-0.448 1-1 1s-1-0.448-1-1c0-0.552 0.448-1 1-1s1 0.448 1 1z"></path>
<path fill="#535d6b" d="M24 28c-2.2 0-4-1.8-4-4s1.8-4 4-4 4 1.8 4 4-1.8 4-4 4zM24 21c-1.7 0-3 1.3-3 3s1.3 3 3 3 3-1.3 3-3-1.3-3-3-3z"></path>
<path fill="#535d6b" d="M2.5 6c-0.3 0-0.5-0.2-0.5-0.5v-3c0-0.3 0.2-0.5 0.5-0.5s0.5 0.2 0.5 0.5v3c0 0.3-0.2 0.5-0.5 0.5z"></path>
<path fill="#535d6b" d="M3.5 16.2c-0.1 0-0.3-0.1-0.4-0.2l-1-1.2c-0.2-0.2-0.2-0.5 0.1-0.7 0.2-0.2 0.5-0.2 0.7 0.1l0.6 0.6 1.6-2.6c0.1-0.2 0.5-0.3 0.7-0.2s0.3 0.5 0.2 0.7l-2 3.2c-0.2 0.2-0.3 0.2-0.5 0.3 0 0 0 0 0 0z"></path>
<path fill="#fff" d="M15.5 14c0 0.828-0.672 1.5-1.5 1.5s-1.5-0.672-1.5-1.5c0-0.828 0.672-1.5 1.5-1.5s1.5 0.672 1.5 1.5z"></path>
<path fill="#535d6b" d="M14 16c-1.1 0-2-0.9-2-2s0.9-2 2-2 2 0.9 2 2c0 1.1-0.9 2-2 2zM14 13c-0.6 0-1 0.4-1 1s0.4 1 1 1 1-0.4 1-1-0.4-1-1-1z"></path>
</svg>
<svg id="raven-element-icon-heading" width="28" height="28" viewBox="0 0 28 28" x="396" y="0">
<path fill="#d0eff7" d="M16 27.5h11.1c0 0-2.2-0.5-3.4-2.5-0.2-0.3-0.5-0.7-0.7-1.2l-8.8-23.4-2.1 5.4 7.2 18.8c0.1 0.1 0.1 0.3 0.1 0.4 0.3 1.7-3.4 2.5-3.4 2.5z"></path>
<path fill="#535d6b" d="M27.2 27c0 0-2-0.5-3-2.2l-0.1-0.2c-0.2-0.3-0.3-0.6-0.5-0.9l-9-23.6c0-0.1-0.1-0.1-0.2-0.2 0 0 0 0-0.1 0 0 0 0 0-0.1 0s-0.1 0-0.2 0v0 0 0c-0.1 0-0.2 0-0.2 0.1v0c0 0-0.1 0-0.1 0.1l-9.4 23.5c-0.9 2.1-3.8 3.5-4 3.5v0 0c0 0-0.1 0-0.1 0.1l-0.1 0.1c0 0 0 0 0 0.1v0.1c-0.1 0-0.1 0-0.1 0v0c0 0 0 0 0 0.1v0 0 0.1c0 0 0 0 0 0.1 0 0 0 0 0.1 0.1 0 0 0.1 0 0.1 0.1 0 0 0 0 0.1 0s0.1 0 0.2 0v0 0h5.9c0.3 0 0.5-0.2 0.5-0.5s-0.2-0.5-0.5-0.5c-0.3 0-0.5-0.1-0.7-0.3-0.6-0.7-0.5-2.3-0.4-2.9l2.6-6.5h8l2.9 7.5c0 0.1 0.1 0.2 0.1 0.4 0 0.1 0 0.3-0.1 0.4-0.4 0.7-2 1.2-3 1.4-0.2 0.1-0.4 0.3-0.4 0.5s0.2 0.4 0.5 0.4h11.1c0.3 0 0.5-0.2 0.5-0.4s0-0.4-0.3-0.5zM8.3 16.4l3.7-9.3 3.5 9.3h-7.2zM18.6 27c0.4-0.2 0.7-0.5 0.9-0.9s0.3-0.8 0.2-1.2c0-0.2-0.1-0.3-0.1-0.5l-7-18.6 1.6-4 8.5 22.3c0.2 0.4 0.4 0.8 0.6 1.1l0.1 0.2c0.4 0.7 1 1.3 1.6 1.7-0.1-0.1-6.4-0.1-6.4-0.1z"></path>
</svg>
<svg id="raven-element-icon-icon" width="28" height="28" viewBox="0 0 28 28" x="440" y="0">
<path fill="#d0eff7" d="M14.9 1l0.5 0.9c0.3 0.6 1.1 0.7 1.6 0.3l0.8-0.7c0.6-0.5 1.5-0.2 1.7 0.6l0.1 1c0.1 0.6 0.8 1 1.4 0.8l0.9-0.4c0.7-0.3 1.5 0.3 1.4 1.1l-0.2 1c-0.1 0.6 0.4 1.2 1 1.2h1c0.8 0 1.3 0.8 0.9 1.5l-0.5 0.8c-0.3 0.5-0.1 1.3 0.5 1.5l1 0.3c0.8 0.2 0.9 1.2 0.3 1.7l-0.8 0.6c-0.5 0.4-0.5 1.2 0 1.6l0.8 0.6c0.6 0.5 0.5 1.5-0.3 1.7l-1 0.3c-0.6 0.2-0.9 0.9-0.5 1.5l0.5 0.8c0.4 0.7-0.1 1.5-0.9 1.5h-1c-0.6 0-1.1 0.6-1 1.2l0.2 1c0.2 0.8-0.6 1.4-1.4 1.1l-0.9-0.4c-0.6-0.2-1.3 0.1-1.4 0.8l-0.1 1c-0.1 0.8-1.1 1.1-1.7 0.6l-0.8-0.7c-0.5-0.4-1.2-0.3-1.6 0.3l-0.5 0.9c-0.4 0.7-1.4 0.7-1.8 0l-0.5-0.9c-0.3-0.6-1.1-0.7-1.6-0.3l-0.8 0.7c-0.6 0.5-1.5 0.2-1.7-0.6l-0.1-1c-0.1-0.6-0.8-1-1.4-0.8l-0.9 0.4c-0.7 0.3-1.5-0.3-1.4-1.1l0.2-1c0.1-0.6-0.4-1.2-1-1.2h-1c-0.8 0-1.3-0.8-0.9-1.5l0.5-0.8c0.3-0.5 0.1-1.3-0.5-1.5l-1-0.3c-0.8-0.2-0.9-1.2-0.3-1.7l0.8-0.6c0.5-0.4 0.5-1.2 0-1.6l-0.8-0.6c-0.6-0.5-0.5-1.5 0.3-1.7l1-0.3c0.8-0.2 1-0.9 0.7-1.5l-0.5-0.8c-0.5-0.7 0-1.6 0.8-1.5h1c0.6 0 1.1-0.6 1-1.2l-0.2-1c-0.1-0.8 0.7-1.4 1.4-1.1l0.9 0.4c0.6 0.2 1.3-0.1 1.4-0.8l0.1-1c0.2-0.8 1.1-1.1 1.7-0.6l0.8 0.7c0.5 0.4 1.2 0.3 1.6-0.3l0.4-0.9c0.4-0.7 1.4-0.7 1.8 0z"></path>
<path fill="#535d6b" d="M14 28c-0.6 0-1.1-0.3-1.3-0.8l-0.5-0.9c-0.1-0.1-0.2-0.2-0.4-0.3-0.2 0-0.3 0-0.4 0.1l-0.8 0.7c-0.4 0.4-1 0.5-1.5 0.3s-0.9-0.6-1-1.2l-0.1-0.9c0-0.1-0.1-0.3-0.2-0.4s-0.3-0.1-0.4 0l-1 0.4c-0.5 0.2-1.1 0.1-1.5-0.3s-0.6-0.9-0.5-1.4l0.2-1c0-0.2 0-0.3-0.1-0.4s-0.2-0.2-0.4-0.2h-1c-0.6 0-1.1-0.3-1.4-0.8s-0.3-1.1 0-1.5l0.5-0.8c0.1-0.2 0.1-0.3 0-0.4 0.1-0.1-0.1-0.2-0.2-0.3l-1-0.3c-0.5-0.2-0.9-0.6-1-1.2-0.1-0.5 0.1-1.1 0.6-1.4l0.8-0.6c0.1-0.1 0.2-0.2 0.2-0.4s-0.1-0.3-0.2-0.4l-0.8-0.6c-0.4-0.3-0.6-0.9-0.6-1.4 0.1-0.5 0.5-1 1-1.2l1-0.3c0.1 0 0.3-0.2 0.3-0.3s0.1-0.2 0-0.4l-0.6-0.9c-0.3-0.5-0.3-1 0-1.5s0.8-0.7 1.4-0.7h1c0.2 0 0.3-0.1 0.4-0.2 0-0.1 0.1-0.2 0.1-0.4l-0.2-1c-0.1-0.5 0-1.1 0.5-1.4 0.4-0.4 1-0.5 1.5-0.3l0.9 0.4c0.1 0.1 0.3 0 0.4 0 0.2-0.1 0.3-0.2 0.3-0.4l0.1-1c0.1-0.5 0.4-1 1-1.2 0.5-0.2 1.1-0.1 1.5 0.3l0.8 0.7c0.1 0.1 0.3 0.1 0.4 0.1 0.2 0 0.3-0.1 0.4-0.3l0.5-0.9c0.2-0.4 0.7-0.7 1.3-0.7s1.1 0.3 1.3 0.8l0.5 0.9c0.1 0.1 0.2 0.2 0.4 0.3 0.2 0 0.3 0 0.4-0.1l0.8-0.7c0.4-0.4 1-0.5 1.5-0.3s0.9 0.6 1 1.2l0.1 0.9c0 0.2 0.2 0.3 0.2 0.4 0.1 0.1 0.3 0.1 0.4 0l1-0.4c0.5-0.2 1.1-0.1 1.5 0.3s0.6 0.9 0.5 1.4l-0.2 1c0 0.2 0 0.3 0.1 0.4s0.2 0.2 0.4 0.2h1c0.6 0 1.1 0.3 1.4 0.8s0.3 1.1 0 1.5l-0.5 0.8c-0.1 0.2-0.1 0.3 0 0.4s0.2 0.3 0.3 0.3l1 0.3c0.5 0.2 0.9 0.6 1 1.2 0.1 0.5-0.1 1.1-0.6 1.4l-0.8 0.6c-0.1 0.1-0.2 0.2-0.2 0.4s0.1 0.3 0.2 0.4l0.8 0.6c0.4 0.3 0.6 0.9 0.6 1.4-0.1 0.5-0.5 1-1 1.2l-1 0.3c-0.1 0-0.3 0.2-0.3 0.3s-0.1 0.2 0 0.4l0.5 0.8c0.3 0.5 0.3 1 0 1.5s-0.8 0.8-1.4 0.8h-1c-0.2 0-0.3 0.1-0.4 0.2s-0.1 0.2-0.1 0.4l0.2 1c0.1 0.5-0.1 1.1-0.5 1.4-0.4 0.4-1 0.5-1.5 0.3l-0.9-0.4c-0.1-0.1-0.3 0-0.4 0-0.2 0.1-0.3 0.2-0.3 0.4l-0.1 1c-0.1 0.5-0.4 1-1 1.2-0.5 0.2-1.1 0.1-1.5-0.3l-0.8-0.7c-0.1-0.1-0.3-0.1-0.4-0.1-0.2 0-0.3 0.1-0.4 0.3l-0.5 0.9c-0.2 0.4-0.7 0.7-1.3 0.7zM11.7 25.1c0.1 0 0.2 0 0.3 0 0.5 0.1 0.8 0.4 1.1 0.8l0.5 0.9c0.2 0.3 0.7 0.3 0.9 0l0.5-0.9c0.2-0.4 0.6-0.7 1.1-0.8s0.9 0 1.3 0.4l0.8 0.7c0.1 0.1 0.3 0.2 0.5 0.1 0.1 0 0.3-0.1 0.3-0.4l0.1-1c0.1-0.5 0.3-0.8 0.7-1.1 0.4-0.2 0.9-0.3 1.3-0.1l0.9 0.3c0.2 0.1 0.4 0 0.5-0.1s0.2-0.2 0.2-0.5l-0.2-1c-0.1-0.4 0-0.9 0.3-1.3s0.7-0.5 1.2-0.5h1c0.2 0 0.4-0.1 0.5-0.3 0-0.1 0.1-0.3 0-0.5l-0.5-0.8c-0.2-0.4-0.3-0.9-0.1-1.3s0.5-0.8 0.9-0.9l1-0.3c0.3-0.1 0.3-0.3 0.3-0.4s0-0.3-0.2-0.5l-0.9-0.4c-0.4-0.3-0.6-0.7-0.6-1.2s0.2-0.9 0.6-1.2l0.8-0.6c0.2-0.2 0.2-0.4 0.2-0.5s-0.1-0.3-0.3-0.4l-1-0.3c-0.4-0.1-0.8-0.5-0.9-0.9-0.2-0.4-0.1-0.9 0.1-1.3l0.5-0.8c0.1-0.2 0.1-0.4 0-0.5-0.1-0.2-0.3-0.3-0.5-0.3h-1c-0.5 0-0.9-0.2-1.2-0.5-0.3-0.4-0.4-0.8-0.3-1.3l0.2-1c0.1-0.3-0.1-0.4-0.2-0.5-0.1 0-0.3 0-0.4 0.1l-1 0.3c-0.4 0.2-0.9 0.1-1.3-0.1s-0.6-0.6-0.7-1l-0.1-1c0-0.3-0.2-0.4-0.3-0.4-0.2-0.1-0.4 0-0.5 0.1l-0.8 0.7c-0.4 0.2-0.9 0.4-1.3 0.3-0.5-0.1-0.8-0.4-1.1-0.8l-0.5-0.9c-0.2-0.3-0.7-0.3-0.9 0l-0.5 0.9c-0.2 0.4-0.6 0.7-1.1 0.8s-0.9 0-1.3-0.4l-0.6-0.6c-0.1-0.1-0.3-0.2-0.5-0.1-0.1 0-0.3 0.1-0.3 0.4l-0.2 1c-0.1 0.4-0.3 0.8-0.7 1-0.4 0.3-0.9 0.3-1.3 0.1l-1-0.3c-0.1-0.1-0.3-0.1-0.5 0-0.1 0.1-0.2 0.3-0.2 0.5l0.2 1c0.1 0.4 0 0.9-0.3 1.3-0.3 0.3-0.7 0.5-1.2 0.5h-1c-0.2 0-0.4 0.1-0.5 0.3 0 0.1-0.1 0.3 0 0.5l0.5 0.8c0.2 0.4 0.3 0.9 0.1 1.3s-0.5 0.8-0.9 0.9l-1 0.3c-0.1 0-0.2 0.3-0.2 0.3 0 0.1 0 0.3 0.2 0.5l0.8 0.6c0.4 0.3 0.6 0.7 0.6 1.2s-0.3 0.9-0.6 1.2l-0.8 0.6c-0.2 0.2-0.2 0.4-0.2 0.5s0.1 0.3 0.3 0.4l1 0.3c0.4 0.1 0.8 0.5 0.9 0.9 0.2 0.4 0.1 0.9-0.1 1.3l-0.5 0.8c-0.1 0.2-0.1 0.4 0 0.5 0.1 0.2 0.3 0.2 0.5 0.3h1c0.5 0 0.9 0.2 1.2 0.5 0.3 0.4 0.4 0.8 0.3 1.3l-0.2 1c-0.1 0.3 0.1 0.4 0.2 0.5 0.1 0 0.3 0 0.4-0.1l1-0.3c0.4-0.2 0.9-0.1 1.3 0.1s0.6 0.6 0.7 1l0.1 1c0 0.3 0.2 0.4 0.3 0.4 0.2 0.1 0.4 0 0.5-0.1l0.8-0.7c0.3-0.2 0.7-0.3 1-0.3z"></path>
</svg>
<svg id="raven-element-icon-image" width="35" height="28" viewBox="0 0 35 28" x="484" y="0">
<path fill="#d0eff7" d="M0.583 0.583h33.833v26.833h-33.833v-26.833z"></path>
<path fill="#535d6b" d="M34.417 28h-33.833c-0.35 0-0.583-0.233-0.583-0.583v-26.833c0-0.35 0.233-0.583 0.583-0.583h33.833c0.35 0 0.583 0.233 0.583 0.583v26.833c0 0.35-0.233 0.583-0.583 0.583zM1.167 26.833h32.667v-25.667h-32.667v25.667z"></path>
<path fill="#fff" d="M24.733 15.517l-3.15 3.733-6.65-8.050-8.517 10.383h23.333z"></path>
<path fill="#535d6b" d="M29.75 22.167h-23.333c-0.233 0-0.467-0.117-0.583-0.35 0-0.233 0-0.467 0.117-0.583l8.517-10.383c0.233-0.233 0.7-0.233 0.933 0l6.183 7.467 2.683-3.267c0.117-0.117 0.233-0.233 0.467-0.233 0.117 0 0.35 0.117 0.467 0.233l5.017 6.067c0.117 0.117 0.117 0.467 0.117 0.583-0.117 0.35-0.35 0.467-0.583 0.467zM7.7 21h20.883l-3.733-4.55-2.683 3.267c-0.233 0.117-0.467 0.117-0.583 0.117v0c-0.117 0-0.35-0.117-0.467-0.233l-6.183-7.467-7.233 8.867z"></path>
<path fill="#535d6b" d="M8.167 9.333c0 0.644-0.522 1.167-1.167 1.167s-1.167-0.522-1.167-1.167c0-0.644 0.522-1.167 1.167-1.167s1.167 0.522 1.167 1.167z"></path>
</svg>
<svg id="raven-element-icon-navigation" width="28" height="28" viewBox="0 0 28 28" x="528" y="0">
<path fill="#d0eff7" d="M27.481 14c0 7.446-6.036 13.481-13.481 13.481s-13.481-6.036-13.481-13.481c0-7.446 6.036-13.481 13.481-13.481s13.481 6.036 13.481 13.481z"></path>
<path fill="#535d6b" d="M14 0c-7.674 0-14 6.326-14 14s6.326 14 14 14 14-6.326 14-14c0-7.674-6.326-14-14-14zM14 26.963c-7.156 0-12.963-5.807-12.963-12.963s5.807-12.963 12.963-12.963 12.963 5.807 12.963 12.963-5.807 12.963-12.963 12.963z"></path>
<path fill="#535d6b" d="M18.667 17.63h-9.333c-0.311 0-0.519 0.207-0.519 0.519s0.207 0.519 0.519 0.519h9.333c0.311 0 0.519-0.207 0.519-0.519s-0.207-0.519-0.519-0.519z"></path>
<path fill="#535d6b" d="M18.667 9.333h-9.333c-0.311 0-0.519 0.207-0.519 0.519s0.207 0.519 0.519 0.519h9.333c0.311 0 0.519-0.207 0.519-0.519s-0.207-0.519-0.519-0.519z"></path>
<path fill="#535d6b" d="M18.667 13.481h-9.333c-0.311 0-0.519 0.207-0.519 0.519s0.207 0.519 0.519 0.519h9.333c0.311 0 0.519-0.207 0.519-0.519s-0.207-0.519-0.519-0.519z"></path>
</svg>
<svg id="raven-element-icon-photo-album" width="26" height="28" viewBox="0 0 26 28" x="572" y="0">
<path fill="#fff" d="M21.5 23.5v4h-17v-3.9z"></path>
<path fill="#535d6b" d="M21.5 28h-17c-0.3 0-0.5-0.2-0.5-0.5v-3.9c0-0.3 0.2-0.5 0.5-0.5s0.5 0.3 0.5 0.5v3.4h16v-3.5c0-0.3 0.2-0.5 0.5-0.5s0.5 0.2 0.5 0.5v4c0 0.3-0.2 0.5-0.5 0.5z"></path>
<path fill="#d0eff7" d="M21.5 12c0 4.694-3.806 8.5-8.5 8.5s-8.5-3.806-8.5-8.5c0-4.694 3.806-8.5 8.5-8.5s8.5 3.806 8.5 8.5z"></path>
<path fill="#535d6b" d="M13 21c-5 0-9-4-9-9s4-9 9-9 9 4 9 9-4 9-9 9zM13 4c-4.4 0-8 3.6-8 8s3.6 8 8 8 8-3.6 8-8-3.6-8-8-8z"></path>
<path fill="#535d6b" d="M9 9c0 0.552-0.448 1-1 1s-1-0.448-1-1c0-0.552 0.448-1 1-1s1 0.448 1 1z"></path>
<path fill="#fff" d="M23.5 23.5v2h-21v-2z"></path>
<path fill="#535d6b" d="M23.5 26h-21c-0.3 0-0.5-0.2-0.5-0.5v-2c0-0.3 0.2-0.5 0.5-0.5s0.5 0.2 0.5 0.5v1.5h20v-1.5c0-0.3 0.2-0.5 0.5-0.5s0.5 0.2 0.5 0.5v2c0 0.3-0.2 0.5-0.5 0.5z"></path>
<path fill="#fff" d="M16.1 12.1l-1.8 2.2-3.1-3.9-5.1 6.6c1.5 2.1 4 3.5 6.9 3.5s5.3-1.4 6.9-3.5l-3.8-4.9z"></path>
<path fill="#535d6b" d="M13 21c-2.9 0-5.6-1.4-7.3-3.7-0.1-0.2-0.1-0.4 0-0.6l5.1-6.5c0.2-0.2 0.6-0.2 0.8 0l2.7 3.4 1.4-1.7c0.2-0.2 0.6-0.2 0.8 0l3.8 4.8c0.1 0.2 0.1 0.4 0 0.6-1.7 2.3-4.4 3.7-7.3 3.7zM6.7 17c1.5 1.9 3.8 3 6.3 3 2.4 0 4.7-1.1 6.3-3l-3.2-4-1.4 1.7c-0.2 0.2-0.6 0.2-0.8 0l-2.7-3.4-4.5 5.7z"></path>
<path fill="#535d6b" d="M25.5 24h-25c-0.3 0-0.5-0.2-0.5-0.5v-23c0-0.3 0.2-0.5 0.5-0.5h25c0.3 0 0.5 0.2 0.5 0.5v23c0 0.3-0.2 0.5-0.5 0.5zM1 23h24v-22h-24v22z"></path>
</svg>
<svg id="raven-element-icon-photo-roller" width="49" height="28" viewBox="0 0 49 28" x="616" y="0">
<path fill="#d0eff7" d="M10.706 0.824h37.882v26.353h-37.882v-26.353z"></path>
<path fill="#535d6b" d="M48.588 28h-37.882c-0.494 0-0.824-0.329-0.824-0.824v-26.353c0-0.494 0.329-0.824 0.824-0.824h37.882c0.494 0 0.824 0.329 0.824 0.824v26.353c0 0.494-0.329 0.824-0.824 0.824zM11.529 26.353h36.235v-24.706h-36.235v24.706z"></path>
<path fill="#535d6b" d="M19.765 9.879c0.002 0.91-0.734 1.649-1.643 1.651s-1.649-0.734-1.651-1.643c-0.002-0.91 0.734-1.649 1.643-1.651s1.649 0.734 1.651 1.643z"></path>
<path fill="#fff" d="M37.224 12.188l-3.459 4.282-5.765-7.412-9.059 11.529h24.706z"></path>
<path fill="#535d6b" d="M18.941 21.412c-0.329 0-0.659-0.165-0.659-0.494s-0.165-0.659 0.165-0.824l8.894-11.529c0.165-0.165 0.329-0.329 0.659-0.329v0c0.329 0 0.494 0.165 0.659 0.329l5.271 6.588 2.635-3.459c0.165-0.165 0.329-0.329 0.659-0.329v0c0.329 0 0.494 0.165 0.659 0.329l6.588 8.4c0.165 0.329 0.165 0.659 0.165 0.824s-0.659 0.494-0.988 0.494h-24.706c0 0 0 0 0 0zM28 10.376l-7.412 9.388h21.412l-4.776-6.259-2.635 3.459c-0.165 0.165-0.329 0.329-0.659 0.329v0c-0.329 0-0.494-0.165-0.659-0.329l-5.271-6.588z"></path>
<path fill="#535d6b" d="M7.412 8.235h-6.588c-0.494 0-0.824-0.329-0.824-0.824s0.329-0.824 0.824-0.824h6.588c0.494 0 0.824 0.329 0.824 0.824s-0.329 0.824-0.824 0.824z"></path>
<path fill="#535d6b" d="M12.353 14.824h-4.941c-0.494 0-0.824-0.329-0.824-0.824s0.329-0.824 0.824-0.824h4.941c0.494 0 0.824 0.329 0.824 0.824s-0.329 0.824-0.824 0.824z"></path>
<path fill="#535d6b" d="M7.412 21.412h-3.294c-0.494 0-0.824-0.329-0.824-0.824s0.329-0.824 0.824-0.824h3.294c0.494 0 0.824 0.329 0.824 0.824s-0.329 0.824-0.824 0.824z"></path>
</svg>
<svg id="raven-element-icon-posts" width="34" height="28" viewBox="0 0 34 28" x="0" y="44">
<path fill="#d0eff7" d="M0.56 0.56h14.56v13.44h-14.56v-13.44z"></path>
<path fill="#535d6b" d="M15.12 14.56h-14.56c-0.336 0-0.56-0.224-0.56-0.56v-13.44c0-0.336 0.224-0.56 0.56-0.56h14.56c0.336 0 0.56 0.224 0.56 0.56v13.44c0 0.336-0.224 0.56-0.56 0.56zM1.12 13.44h13.44v-12.32h-13.44v12.32z"></path>
<path fill="#535d6b" d="M15.12 28h-14.56c-0.336 0-0.56-0.224-0.56-0.56v-13.44c0-0.336 0.224-0.56 0.56-0.56h14.56c0.336 0 0.56 0.224 0.56 0.56v13.44c0 0.336-0.224 0.56-0.56 0.56zM1.12 26.88h13.44v-12.32h-13.44v12.32z"></path>
<path fill="#535d6b" d="M33.040 28h-14.56c-0.336 0-0.56-0.224-0.56-0.56v-13.44c0-0.336 0.224-0.56 0.56-0.56h14.56c0.336 0 0.56 0.224 0.56 0.56v13.44c0 0.336-0.224 0.56-0.56 0.56zM19.040 26.88h13.44v-12.32h-13.44v12.32z"></path>
<path fill="#d0eff7" d="M18.48 0.56h14.56v13.44h-14.56v-13.44z"></path>
<path fill="#535d6b" d="M33.040 14.56h-14.56c-0.336 0-0.56-0.224-0.56-0.56v-13.44c0-0.336 0.224-0.56 0.56-0.56h14.56c0.336 0 0.56 0.224 0.56 0.56v13.44c0 0.336-0.224 0.56-0.56 0.56zM19.040 13.44h13.44v-12.32h-13.44v12.32z"></path>
<path fill="#535d6b" d="M8.4 17.92h-4.48c-0.336 0-0.56-0.224-0.56-0.56s0.224-0.56 0.56-0.56h4.48c0.336 0 0.56 0.224 0.56 0.56s-0.224 0.56-0.56 0.56z"></path>
<path fill="#535d6b" d="M12.88 20.16h-8.96c-0.336 0-0.56-0.224-0.56-0.56s0.224-0.56 0.56-0.56h8.96c0.336 0 0.56 0.224 0.56 0.56s-0.224 0.56-0.56 0.56z"></path>
<path fill="#535d6b" d="M26.32 17.92h-4.48c-0.336 0-0.56-0.224-0.56-0.56s0.224-0.56 0.56-0.56h4.48c0.336 0 0.56 0.224 0.56 0.56s-0.224 0.56-0.56 0.56z"></path>
<path fill="#535d6b" d="M11.76 24.64h-1.12c-0.336 0-0.56-0.224-0.56-0.56s0.224-0.56 0.56-0.56h1.12c0.336 0 0.56 0.224 0.56 0.56s-0.224 0.56-0.56 0.56z"></path>
<path fill="#535d6b" d="M29.68 24.64h-1.12c-0.336 0-0.56-0.224-0.56-0.56s0.224-0.56 0.56-0.56h1.12c0.336 0 0.56 0.224 0.56 0.56s-0.224 0.56-0.56 0.56z"></path>
<path fill="#535d6b" d="M29.68 20.16h-7.84c-0.336 0-0.56-0.224-0.56-0.56s0.224-0.56 0.56-0.56h7.84c0.336 0 0.56 0.224 0.56 0.56s-0.224 0.56-0.56 0.56z"></path>
<path fill="#535d6b" d="M12.88 22.4h-8.96c-0.336 0-0.56-0.224-0.56-0.56s0.224-0.56 0.56-0.56h8.96c0.336 0 0.56 0.224 0.56 0.56s-0.224 0.56-0.56 0.56z"></path>
<path fill="#535d6b" d="M29.68 22.4h-7.84c-0.336 0-0.56-0.224-0.56-0.56s0.224-0.56 0.56-0.56h7.84c0.336 0 0.56 0.224 0.56 0.56s-0.224 0.56-0.56 0.56z"></path>
</svg>
<svg id="raven-element-icon-posts-carousel" width="47" height="28" viewBox="0 0 47 28" x="44" y="44">
<path fill="#535d6b" d="M38.111 28h-29.556c-0.467 0-0.778-0.311-0.778-0.778v-26.444c0-0.467 0.311-0.778 0.778-0.778h29.556c0.467 0 0.778 0.311 0.778 0.778v26.444c0 0.467-0.311 0.778-0.778 0.778zM9.333 26.444h28v-24.889h-28v24.889z"></path>
<path fill="#535d6b" d="M45.889 28h-3.111c-0.467 0-0.778-0.311-0.778-0.778v-26.444c0-0.467 0.311-0.778 0.778-0.778h3.111c0.467 0 0.778 0.311 0.778 0.778s-0.311 0.778-0.778 0.778h-2.333v24.889h2.333c0.467 0 0.778 0.311 0.778 0.778s-0.311 0.778-0.778 0.778z"></path>
<path fill="#535d6b" d="M3.889 28h-3.111c-0.467 0-0.778-0.311-0.778-0.778s0.311-0.778 0.778-0.778h2.333v-24.889h-2.333c-0.467 0-0.778-0.311-0.778-0.778s0.311-0.778 0.778-0.778h3.111c0.467 0 0.778 0.311 0.778 0.778v26.444c0 0.467-0.311 0.778-0.778 0.778z"></path>
<path fill="#d0eff7" d="M8.556 0.778h29.556v12.444h-29.556v-12.444z"></path>
<path fill="#535d6b" d="M38.111 14h-29.556c-0.467 0-0.778-0.311-0.778-0.778v-12.444c0-0.467 0.311-0.778 0.778-0.778h29.556c0.467 0 0.778 0.311 0.778 0.778v12.444c0 0.467-0.311 0.778-0.778 0.778zM9.333 12.444h28v-10.889h-28v10.889z"></path>
<path fill="#535d6b" d="M27.222 18.667h-14c-0.467 0-0.778-0.311-0.778-0.778s0.311-0.778 0.778-0.778h14c0.467 0 0.778 0.311 0.778 0.778s-0.311 0.778-0.778 0.778z"></path>
<path fill="#535d6b" d="M19.444 23.333h-6.222c-0.467 0-0.778-0.311-0.778-0.778s0.311-0.778 0.778-0.778h6.222c0.467 0 0.778 0.311 0.778 0.778s-0.311 0.778-0.778 0.778z"></path>
</svg>
<svg id="raven-element-icon-products" width="28" height="28" viewBox="0 0 28 28" x="132" y="44">
<path fill="#535d6b" stroke="#535d6b" stroke-width="1" stroke-miterlimit="10" stroke-linecap="round" stroke-linejoin="round" d="M2.7 24.6h4.3l0.7-2.9h-5.5"></path>
<path fill="none" stroke="#535d6b" stroke-width="1" stroke-miterlimit="10" stroke-linecap="round" stroke-linejoin="round" d="M0.5 19.8h0.9l1.2 4.8h4.2"></path>
<path fill="#535d6b" d="M7.3 27c0 0.552-0.448 1-1 1s-1-0.448-1-1c0-0.552 0.448-1 1-1s1 0.448 1 1z"></path>
<path fill="#535d6b" d="M4.4 27c0 0.552-0.448 1-1 1s-1-0.448-1-1c0-0.552 0.448-1 1-1s1 0.448 1 1z"></path>
<path fill="#d0eff7" d="M0.5 0.5h7.7v7.7h-7.7v-7.7z"></path>
<path fill="#535d6b" d="M8.2 8.7h-7.7c-0.3 0-0.5-0.2-0.5-0.5v-7.7c0-0.3 0.2-0.5 0.5-0.5h7.7c0.3 0 0.5 0.2 0.5 0.5v7.7c0 0.3-0.2 0.5-0.5 0.5zM1 7.7h6.8v-6.7h-6.8v6.7z"></path>
<path fill="#d0eff7" d="M10.2 0.5h7.7v7.7h-7.7v-7.7z"></path>
<path fill="#535d6b" d="M17.9 8.7h-7.7c-0.3 0-0.5-0.2-0.5-0.5v-7.7c0-0.3 0.2-0.5 0.5-0.5h7.7c0.3 0 0.5 0.2 0.5 0.5v7.7c0 0.3-0.3 0.5-0.5 0.5zM10.6 7.7h6.8v-6.7h-6.8v6.7z"></path>
<path fill="#d0eff7" d="M19.8 0.5h7.7v7.7h-7.7v-7.7z"></path>
<path fill="#535d6b" d="M27.5 8.7h-7.7c-0.3 0-0.5-0.2-0.5-0.5v-7.7c0-0.3 0.2-0.5 0.5-0.5h7.7c0.3 0 0.5 0.2 0.5 0.5v7.7c0 0.3-0.2 0.5-0.5 0.5zM20.3 7.7h6.8v-6.7h-6.8v6.7z"></path>
<path fill="#d0eff7" d="M0.5 10.1h7.7v7.7h-7.7v-7.7z"></path>
<path fill="#535d6b" d="M8.2 18.3h-7.7c-0.3 0-0.5-0.2-0.5-0.5v-7.7c0-0.3 0.2-0.5 0.5-0.5h7.7c0.3 0 0.5 0.2 0.5 0.5v7.7c0 0.3-0.2 0.5-0.5 0.5zM1 17.4h6.8v-6.8h-6.8v6.8z"></path>
<path fill="#d0eff7" d="M10.2 10.1h7.7v7.7h-7.7v-7.7z"></path>
<path fill="#535d6b" d="M17.9 18.3h-7.7c-0.3 0-0.5-0.2-0.5-0.5v-7.7c0-0.3 0.2-0.5 0.5-0.5h7.7c0.3 0 0.5 0.2 0.5 0.5v7.7c0 0.3-0.3 0.5-0.5 0.5zM10.6 17.4h6.8v-6.8h-6.8v6.8z"></path>
<path fill="#d0eff7" d="M19.8 10.1h7.7v7.7h-7.7v-7.7z"></path>
<path fill="#535d6b" d="M27.5 18.3h-7.7c-0.3 0-0.5-0.2-0.5-0.5v-7.7c0-0.3 0.2-0.5 0.5-0.5h7.7c0.3 0 0.5 0.2 0.5 0.5v7.7c0 0.3-0.2 0.5-0.5 0.5zM20.3 17.4h6.8v-6.8h-6.8v6.8z"></path>
<path fill="#d0eff7" d="M10.2 19.8h7.7v7.7h-7.7v-7.7z"></path>
<path fill="#535d6b" d="M17.9 28h-7.7c-0.3 0-0.5-0.2-0.5-0.5v-7.7c0-0.3 0.2-0.5 0.5-0.5h7.7c0.3 0 0.5 0.2 0.5 0.5v7.7c0 0.3-0.3 0.5-0.5 0.5zM10.6 27h6.8v-6.8h-6.8v6.8z"></path>
<path fill="#d0eff7" d="M19.8 19.8h7.7v7.7h-7.7v-7.7z"></path>
<path fill="#535d6b" d="M27.5 28h-7.7c-0.3 0-0.5-0.2-0.5-0.5v-7.7c0-0.3 0.2-0.5 0.5-0.5h7.7c0.3 0 0.5 0.2 0.5 0.5v7.7c0 0.3-0.2 0.5-0.5 0.5zM20.3 27h6.8v-6.8h-6.8v6.8z"></path>
</svg>
<svg id="raven-element-icon-search" width="28" height="28" viewBox="0 0 28 28" x="176" y="44">
<path fill="#d0eff7" d="M22.296 11.407c0 6.014-4.875 10.889-10.889 10.889s-10.889-4.875-10.889-10.889c0-6.014 4.875-10.889 10.889-10.889s10.889 4.875 10.889 10.889z"></path>
<path fill="#535d6b" d="M27.896 27.067l-7.985-7.985c1.867-2.074 3.007-4.77 3.007-7.674 0-6.326-5.081-11.407-11.407-11.407s-11.511 5.081-11.511 11.407 5.081 11.407 11.407 11.407c3.007 0 5.6-1.141 7.674-3.007l7.985 7.985c0.104 0.104 0.207 0.104 0.415 0.104s0.311 0 0.415-0.104c0.104-0.104 0.104-0.519 0-0.726zM1.037 11.407c0-5.704 4.667-10.37 10.37-10.37s10.37 4.667 10.37 10.37c0 2.904-1.141 5.496-3.007 7.363 0 0 0 0 0 0s0 0 0 0c-1.867 1.867-4.459 3.007-7.363 3.007-5.704 0-10.37-4.667-10.37-10.37z"></path>
</svg>
<svg id="raven-element-icon-shopping-cart" width="31" height="28" viewBox="0 0 31 28" x="220" y="44">
<path fill="#d0eff7" d="M8.615 16.692h19.385l2.692-11.846h-24.769z"></path>
<path fill="#535d6b" d="M31.123 4.523c-0.108-0.108-0.215-0.215-0.431-0.215h-24.446l-0.862-3.877c-0.108-0.215-0.323-0.431-0.538-0.431h-4.308c-0.323 0-0.538 0.215-0.538 0.538s0.215 0.538 0.538 0.538h3.877l4.631 20.031c0 0.323 0.215 0.431 0.538 0.431h17.877c0.323 0 0.538-0.215 0.538-0.538s-0.215-0.538-0.538-0.538h-17.446l-0.754-3.231h18.738c0.215 0 0.431-0.215 0.538-0.431l2.692-11.846c0-0.108 0-0.323-0.108-0.431zM27.569 16.154h-18.631l-2.477-10.769h23.477l-2.369 10.769z"></path>
<path fill="#535d6b" d="M25.308 22.615c-1.508 0-2.692 1.185-2.692 2.692s1.185 2.692 2.692 2.692 2.692-1.185 2.692-2.692-1.185-2.692-2.692-2.692zM25.308 26.923c-0.862 0-1.615-0.754-1.615-1.615s0.754-1.615 1.615-1.615 1.615 0.754 1.615 1.615-0.754 1.615-1.615 1.615z"></path>
<path fill="#535d6b" d="M11.308 22.615c-1.508 0-2.692 1.185-2.692 2.692s1.185 2.692 2.692 2.692 2.692-1.185 2.692-2.692-1.185-2.692-2.692-2.692zM11.308 26.923c-0.862 0-1.615-0.754-1.615-1.615s0.754-1.615 1.615-1.615 1.615 0.754 1.615 1.615-0.754 1.615-1.615 1.615z"></path>
</svg>
<svg id="raven-element-icon-site-logo" width="35" height="28" viewBox="0 0 35 28" x="264" y="44">
<path fill="#d0eff7" d="M0.583 0.583h33.833v26.833h-33.833v-26.833z"></path>
<path fill="#535d6b" d="M34.417 28h-33.833c-0.35 0-0.583-0.233-0.583-0.583v-26.833c0-0.35 0.233-0.583 0.583-0.583h33.833c0.35 0 0.583 0.233 0.583 0.583v26.833c0 0.35-0.233 0.583-0.583 0.583zM1.167 26.833h32.667v-25.667h-32.667v25.667z"></path>
<path fill="#535d6b" d="M14 16.333h-2.333c-0.35 0-0.583-0.233-0.583-0.583s0.233-0.583 0.583-0.583h2.333c0.35 0 0.583 0.233 0.583 0.583s-0.233 0.583-0.583 0.583z"></path>
<path fill="#535d6b" d="M18.667 16.333h-2.333c-0.35 0-0.583-0.233-0.583-0.583s0.233-0.583 0.583-0.583h2.333c0.35 0 0.583 0.233 0.583 0.583s-0.233 0.583-0.583 0.583z"></path>
<path fill="#535d6b" d="M23.333 16.333h-2.333c-0.35 0-0.583-0.233-0.583-0.583s0.233-0.583 0.583-0.583h2.333c0.35 0 0.583 0.233 0.583 0.583s-0.233 0.583-0.583 0.583z"></path>
<path fill="#fff" d="M17.5 2.917l1.283 3.617h3.967l-3.267 2.1 1.283 3.617-3.267-2.217-3.267 2.217 1.283-3.617-3.267-2.1h3.967z"></path>
<path fill="#535d6b" d="M14.233 12.833c-0.117 0-0.233 0-0.35-0.117-0.233-0.117-0.233-0.467-0.233-0.7l1.050-3.15-2.8-1.867c-0.233-0.233-0.233-0.467-0.233-0.7s0.35-0.467 0.583-0.467h3.617l1.050-3.15c0.117-0.467 0.933-0.467 1.050 0l1.050 3.15h3.617c0.233 0 0.467 0.117 0.583 0.467s0 0.467-0.233 0.7l-2.917 1.983 1.050 3.15c0.117 0.233 0 0.467-0.233 0.7-0.233 0.117-0.467 0.117-0.7 0l-2.683-2.1-2.917 1.983c-0.117 0.117-0.233 0.117-0.35 0.117zM17.5 9.45c0.117 0 0.233 0 0.35 0.117l1.75 1.167-0.7-1.867c-0.117-0.233 0-0.583 0.233-0.7l1.633-1.167h-2.1c-0.233 0-0.467-0.117-0.583-0.35l-0.583-1.983-0.7 1.983c-0.117 0.233-0.35 0.35-0.583 0.35h-2.1l1.633 1.167c0.233 0.117 0.35 0.467 0.233 0.7l-0.7 1.867 1.75-1.167c0.233-0.117 0.35-0.117 0.467-0.117z"></path>
</svg>
<svg id="raven-element-icon-tabs" width="30" height="28" viewBox="0 0 30 28" x="308" y="44">
<path fill="#d0eff7" d="M0.583 0.583h29.167v26.833h-29.167v-26.833z"></path>
<path fill="#535d6b" d="M29.75 28h-29.167c-0.35 0-0.583-0.35-0.583-0.583v-26.833c0-0.35 0.233-0.583 0.583-0.583h29.167c0.35 0 0.583 0.233 0.583 0.583v26.833c0 0.233-0.233 0.583-0.583 0.583zM1.167 26.833h28v-25.667h-28v25.667z"></path>
<path fill="#fff" d="M9.917 0.583h19.833v4.667h-19.833v-4.667z"></path>
<path fill="#535d6b" d="M29.75 5.833h-19.833c-0.35 0-0.583-0.233-0.583-0.583v-4.667c0-0.35 0.233-0.583 0.583-0.583h19.833c0.35 0 0.583 0.233 0.583 0.583v4.667c0 0.35-0.233 0.583-0.583 0.583zM10.5 4.667h18.667v-3.5h-18.667v3.5z"></path>
<path fill="#fff" d="M20.417 0.583h9.333v4.667h-9.333v-4.667z"></path>
<path fill="#535d6b" d="M29.75 5.833h-9.333c-0.35 0-0.583-0.233-0.583-0.583v-4.667c0-0.35 0.233-0.583 0.583-0.583h9.333c0.35 0 0.583 0.233 0.583 0.583v4.667c0 0.35-0.233 0.583-0.583 0.583zM21 4.667h8.167v-3.5h-8.167v3.5z"></path>
</svg>
<svg id="raven-element-icon-twitter" width="34" height="28" viewBox="0 0 34 28" x="352" y="44">
<path fill="#d0eff7" d="M30.375 5.625c1.125-1.125 2.25-3 2.75-4.5-1.375 0.75-2.75 1.375-4.375 1.625-1.25-1.25-3-2.125-5-2.125-3.75 0-6.875 3-6.875 6.75 0 0.5 0 1 0.125 1.5-5.625-0.25-10.625-3-14-7-0.625 1-1 2.125-1 3.375 0 2.375 1.25 4.375 3 5.625-1 0-2.125-0.375-3-0.875 0 0 0 0 0 0.125 0 3.25 2.375 6 5.5 6.625-0.625 0.125-1.125 0.25-1.75 0.25-0.5 0-0.875 0-1.25-0.125 0.875 2.625 3.375 4.625 6.375 4.625-2.375 1.75-5.25 2.875-8.5 2.875-0.5 0-1.125 0-1.625-0.125 3 1.875 6.625 3 10.5 3 12.625 0 19.5-10.25 19.5-19.125-0.125-0.25 0-1-0.375-2.5z"></path>
<path fill="#535d6b" d="M11.125 28c-3.875 0-7.625-1.125-10.875-3.125-0.25-0.25-0.25-0.5-0.25-0.75 0.125-0.25 0.375-0.5 0.625-0.375 2.875 0.375 5.875-0.25 8.375-1.75-2.5-0.625-4.5-2.375-5.25-4.875-0.125-0.25 0-0.5 0.125-0.625 0.125-0.25 0.375-0.375 0.625-0.25 0.125 0 0.125 0 0.25 0-2-1.375-3.375-3.625-3.375-6.125 0-0.25 0.125-0.5 0.25-0.625 0.25-0.125 0.375-0.125 0.625 0s0.5 0.25 0.75 0.25c-1-1.25-1.625-2.875-1.625-4.5 0-1.25 0.375-2.625 1-3.75 0.125-0.125 0.375-0.25 0.5-0.25 0.25 0 0.375 0 0.5 0.25 3.25 3.875 7.875 6.25 12.875 6.75 0-0.25 0-0.625 0-0.875 0-4.125 3.375-7.375 7.5-7.375 2 0 3.875 0.75 5.25 2.125 1.375-0.25 2.625-0.75 3.875-1.5 0.25-0.125 0.5-0.125 0.75 0 0.125 0.125 0.125 0.5 0.125 0.625-0.5 1.625-1.625 3.375-2.625 4.5 0.125 1.375 0.125 2 0.125 2.25 0 9.875-7.5 20-20.125 20zM3.25 25c2.5 1.125 5.125 1.75 7.875 1.75 11.875 0 18.875-9.375 18.875-18.5 0-0.375 0-1-0.25-2.375 0-0.25 0-0.5 0.125-0.625 0.75-0.625 1.375-1.75 2-2.75-1 0.375-2 0.75-3 0.875-0.25 0-0.375 0-0.625-0.125-1.125-1.25-2.75-2-4.5-2-3.375 0-6.25 2.75-6.25 6.125 0 0.5 0 1 0.125 1.375 0 0.25 0 0.375-0.125 0.5s-0.375 0.25-0.5 0.25c-5.25-0.25-10.375-2.625-13.875-6.5-0.375 0.75-0.5 1.5-0.5 2.25 0 2 1 4 2.75 5.125 0.25 0.125 0.375 0.5 0.25 0.75 0 0.125-0.25 0.375-0.625 0.375-0.75 0-1.625-0.25-2.375-0.5 0.375 2.5 2.375 4.625 4.875 5.125 0.25 0 0.5 0.25 0.5 0.625 0 0.25-0.125 0.5-0.5 0.625-0.625 0.125-1.375 0.25-2.125 0.125 1 2 3.125 3.25 5.375 3.375 0.25 0 0.5 0.125 0.625 0.375s0 0.5-0.25 0.75c-2.25 1.75-5 2.75-7.875 3z"></path>
</svg>
<svg id="raven-element-icon-video" width="35" height="28" viewBox="0 0 35 28" x="396" y="44">
<path fill="#d0eff7" d="M0.583 0.583h33.833v26.833h-33.833v-26.833z"></path>
<path fill="#535d6b" d="M34.417 28h-33.833c-0.35 0-0.583-0.233-0.583-0.583v-26.833c0-0.35 0.233-0.583 0.583-0.583h33.833c0.35 0 0.583 0.233 0.583 0.583v26.833c0 0.35-0.233 0.583-0.583 0.583zM1.167 26.833h32.667v-25.667h-32.667v25.667z"></path>
<path fill="#fff" d="M20.417 14l-5.833-2.917v5.833z"></path>
<path fill="#535d6b" d="M14.583 17.5c-0.117 0-0.233 0-0.35-0.117s-0.233-0.35-0.233-0.467v-5.833c0-0.233 0.117-0.35 0.233-0.467s0.35-0.117 0.583 0l5.833 2.917c0.233 0.117 0.35 0.35 0.35 0.467s-0.117 0.467-0.35 0.467l-5.833 2.917c0 0.117-0.117 0.117-0.233 0.117zM15.167 12.017v3.967l3.967-1.983-3.967-1.983z"></path>
</svg>
</svg>
